<svg width="16" height="16" viewBox="0 0 16 16" fill="none" xmlns="http://www.w3.org/2000/svg">
<path d="M15.904 12.256L9.504 5.856C9.57548 5.50871 9.60769 5.15449 9.6 4.8C9.6 3.85065 9.31849 2.92262 8.79106 2.13326C8.26363 1.34391 7.51397 0.728681 6.63688 0.36538C5.7598 0.00207977 4.79468 -0.0929762 3.86357 0.0922328C2.93246 0.277442 2.07718 0.734597 1.40589 1.40589C0.734598 2.07718 0.277442 2.93246 0.0922328 3.86357C-0.0929762 4.79468 0.00207977 5.7598 0.36538 6.63688C0.728681 7.51397 1.34391 8.26363 2.13327 8.79106C2.92262 9.31849 3.85065 9.6 4.8 9.6C5.27727 9.60066 5.75193 9.52946 6.208 9.3888L7.0016 10.1568C7.06172 10.2147 7.14211 10.2469 7.2256 10.2464H8.32V11.8464C8.32 11.9313 8.35372 12.0127 8.41373 12.0727C8.47374 12.1327 8.55513 12.1664 8.64 12.1664H10.24V13.7664C10.24 13.8513 10.2737 13.9327 10.3337 13.9927C10.3937 14.0527 10.4751 14.0864 10.56 14.0864H12.16V15.6864C12.16 15.7713 12.1937 15.8527 12.2537 15.9127C12.3137 15.9727 12.3951 16.0064 12.48 16.0064H15.68C15.7649 16.0064 15.8463 15.9727 15.9063 15.9127C15.9663 15.8527 16 15.7713 16 15.6864V12.4864C16.0003 12.4435 15.9919 12.401 15.9754 12.3615C15.9589 12.3219 15.9346 12.286 15.904 12.256ZM3.84 2.56C4.09316 2.56 4.34064 2.63507 4.55113 2.77572C4.76163 2.91637 4.92569 3.11628 5.02257 3.35017C5.11945 3.58406 5.1448 3.84142 5.09541 4.08972C5.04602 4.33801 4.92411 4.56609 4.7451 4.7451C4.56609 4.92411 4.33801 5.04602 4.08972 5.09541C3.84142 5.1448 3.58406 5.11945 3.35017 5.02257C3.11628 4.92569 2.91637 4.76163 2.77572 4.55113C2.63507 4.34064 2.56 4.09316 2.56 3.84C2.56 3.50052 2.69486 3.17495 2.93491 2.93491C3.17495 2.69486 3.50052 2.56 3.84 2.56Z" fill="#D7DEE6"/>
</svg>
